<svg width="25" height="25" viewBox="0 0 25 25" fill="none" xmlns="http://www.w3.org/2000/svg">
<path d="M12.5209 2.08337C18.4375 2.08337 22.9167 6.9344 22.9167 12.4844C22.9167 18.9211 17.6667 22.9167 12.5 22.9167C10.7917 22.9167 8.89587 22.4577 7.37504 21.5605C6.84379 21.2371 6.39587 20.9972 5.82296 21.1849L3.71879 21.8109C3.18754 21.9778 2.70837 21.5605 2.86462 20.9972L3.56254 18.6603C3.67712 18.3369 3.65629 17.9927 3.48962 17.7214C2.59379 16.0731 2.08337 14.2683 2.08337 12.5157C2.08337 7.02829 6.46879 2.08337 12.5209 2.08337ZM17.2813 11.1908C16.5417 11.1908 15.948 11.7854 15.948 12.5261C15.948 13.2564 16.5417 13.8615 17.2813 13.8615C18.0209 13.8615 18.6146 13.2564 18.6146 12.5261C18.6146 11.7854 18.0209 11.1908 17.2813 11.1908ZM12.4792 11.1908C11.75 11.1804 11.1459 11.7854 11.1459 12.5157C11.1459 13.2564 11.7396 13.851 12.4792 13.8615C13.2188 13.8615 13.8125 13.2564 13.8125 12.5261C13.8125 11.7854 13.2188 11.1908 12.4792 11.1908ZM7.67712 11.1908C6.93754 11.1908 6.34379 11.7854 6.34379 12.5261C6.34379 13.2564 6.94796 13.8615 7.67712 13.8615C8.41671 13.851 9.01046 13.2564 9.01046 12.5261C9.01046 11.7854 8.41671 11.1908 7.67712 11.1908Z" fill="#296870"/>
</svg>
