<svg width="25" height="25" viewBox="0 0 25 25" fill="none" xmlns="http://www.w3.org/2000/svg">
<path d="M17.0209 2.08325C20.5521 2.08325 22.9167 4.56242 22.9167 8.24992V16.7614C22.9167 20.4374 20.5521 22.9166 17.0209 22.9166H7.98962C4.45837 22.9166 2.08337 20.4374 2.08337 16.7614V8.24992C2.08337 4.56242 4.45837 2.08325 7.98962 2.08325H17.0209ZM16.8542 9.37492C16.5 9.02075 15.9167 9.02075 15.5625 9.37492L11.2605 13.677L9.43754 11.8541C9.08337 11.4999 8.50004 11.4999 8.14587 11.8541C7.79171 12.2083 7.79171 12.7812 8.14587 13.1458L10.625 15.6145C10.8021 15.7916 11.0313 15.8749 11.2605 15.8749C11.5 15.8749 11.7292 15.7916 11.9063 15.6145L16.8542 10.6666C17.2084 10.3124 17.2084 9.7395 16.8542 9.37492Z" fill="#296870"/>
</svg>
