<svg width="103" height="79" viewBox="0 0 103 79" fill="none" xmlns="http://www.w3.org/2000/svg">
<path fill-rule="evenodd" clip-rule="evenodd" d="M55.9518 4.00061C56.0378 4.00061 56.1222 4.00787 56.2043 4.02182L56.4746 4.02341C56.8826 4.02341 57.2726 4.18941 57.5566 4.48341L67.6886 15.0374C67.9546 15.3154 68.1048 15.6894 68.1048 16.0754V34.4554C68.1366 39.4734 64.2246 43.5514 59.1986 43.7314H42.9186C38.0381 43.6265 34.124 39.6827 34.0033 34.8519L34.0026 12.9814C34.1206 8.01941 38.2166 4.02341 43.1406 4.02341L55.6992 4.02182C55.7813 4.00787 55.8657 4.00061 55.9518 4.00061ZM54.4506 7.02261L43.1466 7.02341C39.8326 7.02341 37.0806 9.70741 37.0026 13.0174V34.4554C36.9306 37.8574 39.6106 40.6574 42.9806 40.7314H59.1466C62.4846 40.6114 65.1266 37.8574 65.1047 34.4654L65.1046 17.9666L61.0878 17.9686C57.4258 17.9586 54.4518 14.9746 54.4518 11.3186L54.4506 7.02261ZM50.2834 18.3184C50.6974 18.3184 51.0724 18.4864 51.3439 18.7579L51.346 18.7592L56.038 23.4712C56.622 24.0592 56.62 25.0072 56.034 25.5912C55.446 26.1752 54.496 26.1752 53.912 25.5872L51.7826 23.4486L51.7834 31.9004C51.7834 32.7284 51.1114 33.4004 50.2834 33.4004C49.4554 33.4004 48.7834 32.7284 48.7834 31.9004L48.7826 23.4486L46.656 25.5872C46.364 25.8832 45.978 26.0292 45.594 26.0292C45.212 26.0292 44.828 25.8832 44.536 25.5912C43.95 25.0072 43.946 24.0592 44.532 23.4712L49.22 18.7592L49.2869 18.6975C49.3158 18.6718 49.3457 18.6472 49.3766 18.6237L49.22 18.7592C49.2757 18.7032 49.3358 18.6528 49.3993 18.6079C49.6462 18.4258 49.9523 18.3184 50.2834 18.3184ZM57.4506 8.70461L57.4518 11.3186C57.4518 13.3266 59.0838 14.9626 61.0918 14.9686L63.4606 14.9666L57.4506 8.70461Z" fill="#296870"/>
<path d="M2.926 78.296C1.93667 76.4013 1.442 74.4087 1.442 72.318C1.442 70.2273 1.93667 68.2347 2.926 66.34C3.04733 66.1253 3.21067 66.018 3.416 66.018C3.528 66.018 3.62133 66.0553 3.696 66.13C3.78 66.2047 3.822 66.298 3.822 66.41C3.822 66.4753 3.808 66.5453 3.78 66.62C2.996 68.468 2.604 70.3673 2.604 72.318C2.604 74.2687 2.996 76.168 3.78 78.016C3.808 78.1 3.822 78.17 3.822 78.226C3.822 78.3473 3.78 78.4407 3.696 78.506C3.62133 78.5807 3.528 78.618 3.416 78.618C3.21067 78.618 3.04733 78.5107 2.926 78.296ZM4.96234 76.07C4.72901 76.0887 4.55168 76.056 4.43034 75.972C4.30901 75.888 4.24834 75.762 4.24834 75.594C4.24834 75.286 4.42101 75.1273 4.76634 75.118L5.18634 75.09C5.66234 75.062 6.01701 74.9173 6.25034 74.656C6.48368 74.3853 6.60034 73.956 6.60034 73.368V66.648C6.60034 66.4707 6.65634 66.3307 6.76834 66.228C6.88034 66.116 7.01568 66.06 7.17434 66.06C7.35168 66.06 7.49168 66.116 7.59434 66.228C7.69701 66.3307 7.74834 66.4707 7.74834 66.648V73.382C7.74834 74.2407 7.55234 74.8893 7.16034 75.328C6.76834 75.7573 6.17568 75.9953 5.38234 76.042L4.96234 76.07ZM10.7608 76.07C10.5834 76.07 10.4434 76.0187 10.3408 75.916C10.2381 75.804 10.1868 75.6593 10.1868 75.482V66.69C10.1868 66.522 10.2381 66.3867 10.3408 66.284C10.4528 66.1813 10.5974 66.13 10.7748 66.13H14.0928C15.1288 66.13 15.9314 66.382 16.5008 66.886C17.0794 67.39 17.3688 68.104 17.3688 69.028C17.3688 69.952 17.0794 70.6707 16.5008 71.184C15.9221 71.6973 15.1194 71.954 14.0928 71.954H11.3348V75.482C11.3348 75.6593 11.2834 75.804 11.1808 75.916C11.0781 76.0187 10.9381 76.07 10.7608 76.07ZM13.9808 71.002C15.4834 71.002 16.2348 70.344 16.2348 69.028C16.2348 67.7307 15.4834 67.082 13.9808 67.082H11.3348V71.002H13.9808ZM26.4095 70.862C26.5495 70.862 26.6615 70.904 26.7455 70.988C26.8388 71.072 26.8855 71.1887 26.8855 71.338V74.824C26.8855 75.048 26.8481 75.216 26.7735 75.328C26.7081 75.44 26.5821 75.5287 26.3955 75.594C26.0221 75.7527 25.5695 75.8787 25.0375 75.972C24.5055 76.0653 23.9735 76.112 23.4415 76.112C22.4615 76.112 21.6168 75.9113 20.9075 75.51C20.1981 75.1087 19.6521 74.53 19.2695 73.774C18.8961 73.018 18.7095 72.1127 18.7095 71.058C18.7095 70.022 18.8961 69.126 19.2695 68.37C19.6428 67.614 20.1795 67.0353 20.8795 66.634C21.5795 66.2233 22.4008 66.018 23.3435 66.018C23.9968 66.018 24.6035 66.1207 25.1635 66.326C25.7235 66.522 26.1948 66.8067 26.5775 67.18C26.7361 67.3387 26.8155 67.502 26.8155 67.67C26.8155 67.8007 26.7781 67.9173 26.7035 68.02C26.6288 68.1133 26.5355 68.16 26.4235 68.16C26.3115 68.16 26.1808 68.104 26.0315 67.992C25.5461 67.6187 25.1075 67.362 24.7155 67.222C24.3235 67.0727 23.8708 66.998 23.3575 66.998C22.2468 66.998 21.3928 67.348 20.7955 68.048C20.2075 68.748 19.9135 69.7513 19.9135 71.058C19.9135 72.3927 20.2121 73.41 20.8095 74.11C21.4161 74.8007 22.3028 75.146 23.4695 75.146C24.3375 75.146 25.1261 75.0153 25.8355 74.754V71.758H23.7915C23.6328 71.758 23.5068 71.716 23.4135 71.632C23.3201 71.548 23.2735 71.4407 23.2735 71.31C23.2735 71.17 23.3201 71.0627 23.4135 70.988C23.5068 70.904 23.6328 70.862 23.7915 70.862H26.4095ZM29.5683 74.488C29.8017 74.488 29.9883 74.5813 30.1283 74.768C30.2777 74.9453 30.3523 75.216 30.3523 75.58C30.3523 76.3173 30.1143 76.938 29.6383 77.442C29.545 77.5447 29.4377 77.596 29.3163 77.596C29.223 77.596 29.139 77.5587 29.0643 77.484C28.9897 77.4187 28.9523 77.3393 28.9523 77.246C28.9523 77.1433 28.9897 77.0547 29.0643 76.98C29.307 76.728 29.461 76.4153 29.5263 76.042C29.321 76.0233 29.1483 75.9487 29.0083 75.818C28.8777 75.678 28.8123 75.5007 28.8123 75.286C28.8123 75.0527 28.8823 74.8613 29.0223 74.712C29.1717 74.5627 29.3537 74.488 29.5683 74.488ZM36.5869 76.07C36.4096 76.07 36.2696 76.0187 36.1669 75.916C36.0643 75.804 36.0129 75.6593 36.0129 75.482V66.69C36.0129 66.522 36.0643 66.3867 36.1669 66.284C36.2789 66.1813 36.4236 66.13 36.6009 66.13H39.9189C40.9549 66.13 41.7576 66.382 42.3269 66.886C42.9056 67.39 43.1949 68.104 43.1949 69.028C43.1949 69.952 42.9056 70.6707 42.3269 71.184C41.7483 71.6973 40.9456 71.954 39.9189 71.954H37.1609V75.482C37.1609 75.6593 37.1096 75.804 37.0069 75.916C36.9043 76.0187 36.7643 76.07 36.5869 76.07ZM39.8069 71.002C41.3096 71.002 42.0609 70.344 42.0609 69.028C42.0609 67.7307 41.3096 67.082 39.8069 67.082H37.1609V71.002H39.8069ZM52.4144 66.06C52.5824 66.06 52.713 66.116 52.8064 66.228C52.8997 66.3307 52.9464 66.4707 52.9464 66.648V75.482C52.9464 75.6593 52.895 75.804 52.7924 75.916C52.699 76.0187 52.5637 76.07 52.3864 76.07C52.209 76.07 52.055 75.9907 51.9244 75.832L46.1144 68.062V75.482C46.1144 75.6593 46.063 75.804 45.9604 75.916C45.867 76.0187 45.7364 76.07 45.5684 76.07C45.4004 76.07 45.2697 76.0187 45.1764 75.916C45.083 75.804 45.0364 75.6593 45.0364 75.482V66.648C45.0364 66.4707 45.083 66.3307 45.1764 66.228C45.279 66.116 45.419 66.06 45.5964 66.06C45.783 66.06 45.9417 66.1393 46.0724 66.298L51.8684 74.068V66.648C51.8684 66.4707 51.915 66.3307 52.0084 66.228C52.111 66.116 52.2464 66.06 52.4144 66.06ZM62.722 70.862C62.862 70.862 62.974 70.904 63.058 70.988C63.1513 71.072 63.198 71.1887 63.198 71.338V74.824C63.198 75.048 63.1606 75.216 63.086 75.328C63.0206 75.44 62.8946 75.5287 62.708 75.594C62.3346 75.7527 61.882 75.8787 61.35 75.972C60.818 76.0653 60.286 76.112 59.754 76.112C58.774 76.112 57.9293 75.9113 57.22 75.51C56.5106 75.1087 55.9646 74.53 55.582 73.774C55.2086 73.018 55.022 72.1127 55.022 71.058C55.022 70.022 55.2086 69.126 55.582 68.37C55.9553 67.614 56.492 67.0353 57.192 66.634C57.892 66.2233 58.7133 66.018 59.656 66.018C60.3093 66.018 60.916 66.1207 61.476 66.326C62.036 66.522 62.5073 66.8067 62.89 67.18C63.0486 67.3387 63.128 67.502 63.128 67.67C63.128 67.8007 63.0906 67.9173 63.016 68.02C62.9413 68.1133 62.848 68.16 62.736 68.16C62.624 68.16 62.4933 68.104 62.344 67.992C61.8586 67.6187 61.42 67.362 61.028 67.222C60.636 67.0727 60.1833 66.998 59.67 66.998C58.5593 66.998 57.7053 67.348 57.108 68.048C56.52 68.748 56.226 69.7513 56.226 71.058C56.226 72.3927 56.5246 73.41 57.122 74.11C57.7286 74.8007 58.6153 75.146 59.782 75.146C60.65 75.146 61.4386 75.0153 62.148 74.754V71.758H60.104C59.9453 71.758 59.8193 71.716 59.726 71.632C59.6326 71.548 59.586 71.4407 59.586 71.31C59.586 71.17 59.6326 71.0627 59.726 70.988C59.8193 70.904 59.9453 70.862 60.104 70.862H62.722ZM65.8808 74.488C66.1142 74.488 66.3008 74.5813 66.4408 74.768C66.5902 74.9453 66.6648 75.216 66.6648 75.58C66.6648 76.3173 66.4268 76.938 65.9508 77.442C65.8575 77.5447 65.7502 77.596 65.6288 77.596C65.5355 77.596 65.4515 77.5587 65.3768 77.484C65.3022 77.4187 65.2648 77.3393 65.2648 77.246C65.2648 77.1433 65.3022 77.0547 65.3768 76.98C65.6195 76.728 65.7735 76.4153 65.8388 76.042C65.6335 76.0233 65.4608 75.9487 65.3208 75.818C65.1902 75.678 65.1248 75.5007 65.1248 75.286C65.1248 75.0527 65.1948 74.8613 65.3348 74.712C65.4842 74.5627 65.6662 74.488 65.8808 74.488ZM72.8994 76.07C72.7221 76.07 72.5821 76.0187 72.4794 75.916C72.3768 75.804 72.3254 75.6593 72.3254 75.482V66.69C72.3254 66.522 72.3768 66.3867 72.4794 66.284C72.5914 66.1813 72.7361 66.13 72.9134 66.13H76.2314C77.2674 66.13 78.0701 66.382 78.6394 66.886C79.2181 67.39 79.5074 68.104 79.5074 69.028C79.5074 69.952 79.2181 70.6707 78.6394 71.184C78.0608 71.6973 77.2581 71.954 76.2314 71.954H73.4734V75.482C73.4734 75.6593 73.4221 75.804 73.3194 75.916C73.2168 76.0187 73.0768 76.07 72.8994 76.07ZM76.1194 71.002C77.6221 71.002 78.3734 70.344 78.3734 69.028C78.3734 67.7307 77.6221 67.082 76.1194 67.082H73.4734V71.002H76.1194ZM81.9369 76C81.7595 76 81.6149 75.9487 81.5029 75.846C81.4002 75.7433 81.3489 75.608 81.3489 75.44V66.69C81.3489 66.522 81.4002 66.3867 81.5029 66.284C81.6149 66.1813 81.7595 66.13 81.9369 66.13H84.6669C86.2442 66.13 87.4622 66.5593 88.3209 67.418C89.1889 68.2673 89.6229 69.4807 89.6229 71.058C89.6229 72.6353 89.1889 73.8533 88.3209 74.712C87.4529 75.5707 86.2349 76 84.6669 76H81.9369ZM84.5969 75.02C87.1542 75.02 88.4329 73.6993 88.4329 71.058C88.4329 68.426 87.1542 67.11 84.5969 67.11H82.4969V75.02H84.5969ZM92.2725 76.07C92.0951 76.07 91.9551 76.0187 91.8525 75.916C91.7498 75.804 91.6985 75.6593 91.6985 75.482V66.69C91.6985 66.522 91.7498 66.3867 91.8525 66.284C91.9645 66.1813 92.1091 66.13 92.2865 66.13H97.3825C97.5505 66.13 97.6811 66.172 97.7745 66.256C97.8678 66.34 97.9145 66.4613 97.9145 66.62C97.9145 66.7693 97.8678 66.886 97.7745 66.97C97.6811 67.054 97.5505 67.096 97.3825 67.096H92.8325V70.498H97.1025C97.2705 70.498 97.4011 70.54 97.4945 70.624C97.5878 70.708 97.6345 70.8293 97.6345 70.988C97.6345 71.1373 97.5878 71.254 97.4945 71.338C97.4011 71.422 97.2705 71.464 97.1025 71.464H92.8325V75.482C92.8325 75.6593 92.7811 75.804 92.6785 75.916C92.5851 76.0187 92.4498 76.07 92.2725 76.07ZM99.9625 78.296C99.8412 78.5107 99.6732 78.618 99.4585 78.618C99.3465 78.618 99.2485 78.5807 99.1645 78.506C99.0898 78.4407 99.0525 78.352 99.0525 78.24C99.0525 78.2027 99.0712 78.128 99.1085 78.016C99.8832 76.1587 100.271 74.2593 100.271 72.318C100.271 70.3767 99.8832 68.4773 99.1085 66.62C99.0712 66.508 99.0525 66.4333 99.0525 66.396C99.0525 66.284 99.0898 66.1953 99.1645 66.13C99.2485 66.0553 99.3465 66.018 99.4585 66.018C99.6732 66.018 99.8412 66.1253 99.9625 66.34C100.943 68.244 101.433 70.2367 101.433 72.318C101.433 74.3993 100.943 76.392 99.9625 78.296Z" fill="#296870"/>
</svg>
