<svg width="70" height="54" viewBox="0 0 70 54" fill="none" xmlns="http://www.w3.org/2000/svg">
<path d="M3.62327 52.296C2.63393 50.4013 2.13927 48.4087 2.13927 46.318C2.13927 44.2273 2.63393 42.2347 3.62327 40.34C3.7446 40.1253 3.90793 40.018 4.11327 40.018C4.22527 40.018 4.3186 40.0553 4.39327 40.13C4.47727 40.2047 4.51927 40.298 4.51927 40.41C4.51927 40.4753 4.50527 40.5453 4.47727 40.62C3.69327 42.468 3.30127 44.3673 3.30127 46.318C3.30127 48.2687 3.69327 50.168 4.47727 52.016C4.50527 52.1 4.51927 52.17 4.51927 52.226C4.51927 52.3473 4.47727 52.4407 4.39327 52.506C4.3186 52.5807 4.22527 52.618 4.11327 52.618C3.90793 52.618 3.7446 52.5107 3.62327 52.296ZM5.65961 50.07C5.42628 50.0887 5.24894 50.056 5.12761 49.972C5.00628 49.888 4.94561 49.762 4.94561 49.594C4.94561 49.286 5.11828 49.1273 5.46361 49.118L5.88361 49.09C6.35961 49.062 6.71428 48.9173 6.94761 48.656C7.18094 48.3853 7.29761 47.956 7.29761 47.368V40.648C7.29761 40.4707 7.35361 40.3307 7.46561 40.228C7.57761 40.116 7.71294 40.06 7.87161 40.06C8.04894 40.06 8.18894 40.116 8.29161 40.228C8.39428 40.3307 8.44561 40.4707 8.44561 40.648V47.382C8.44561 48.2407 8.24961 48.8893 7.85761 49.328C7.46561 49.7573 6.87294 49.9953 6.07961 50.042L5.65961 50.07ZM11.458 50.07C11.2807 50.07 11.1407 50.0187 11.038 49.916C10.9353 49.804 10.884 49.6593 10.884 49.482V40.69C10.884 40.522 10.9353 40.3867 11.038 40.284C11.15 40.1813 11.2947 40.13 11.472 40.13H14.79C15.826 40.13 16.6287 40.382 17.198 40.886C17.7767 41.39 18.066 42.104 18.066 43.028C18.066 43.952 17.7767 44.6707 17.198 45.184C16.6193 45.6973 15.8167 45.954 14.79 45.954H12.032V49.482C12.032 49.6593 11.9807 49.804 11.878 49.916C11.7753 50.0187 11.6353 50.07 11.458 50.07ZM14.678 45.002C16.1807 45.002 16.932 44.344 16.932 43.028C16.932 41.7307 16.1807 41.082 14.678 41.082H12.032V45.002H14.678ZM27.1067 44.862C27.2467 44.862 27.3587 44.904 27.4427 44.988C27.5361 45.072 27.5827 45.1887 27.5827 45.338V48.824C27.5827 49.048 27.5454 49.216 27.4707 49.328C27.4054 49.44 27.2794 49.5287 27.0927 49.594C26.7194 49.7527 26.2667 49.8787 25.7347 49.972C25.2027 50.0653 24.6707 50.112 24.1387 50.112C23.1587 50.112 22.3141 49.9113 21.6047 49.51C20.8954 49.1087 20.3494 48.53 19.9667 47.774C19.5934 47.018 19.4067 46.1127 19.4067 45.058C19.4067 44.022 19.5934 43.126 19.9667 42.37C20.3401 41.614 20.8767 41.0353 21.5767 40.634C22.2767 40.2233 23.0981 40.018 24.0407 40.018C24.6941 40.018 25.3007 40.1207 25.8607 40.326C26.4207 40.522 26.8921 40.8067 27.2747 41.18C27.4334 41.3387 27.5127 41.502 27.5127 41.67C27.5127 41.8007 27.4754 41.9173 27.4007 42.02C27.3261 42.1133 27.2327 42.16 27.1207 42.16C27.0087 42.16 26.8781 42.104 26.7287 41.992C26.2434 41.6187 25.8047 41.362 25.4127 41.222C25.0207 41.0727 24.5681 40.998 24.0547 40.998C22.9441 40.998 22.0901 41.348 21.4927 42.048C20.9047 42.748 20.6107 43.7513 20.6107 45.058C20.6107 46.3927 20.9094 47.41 21.5067 48.11C22.1134 48.8007 23.0001 49.146 24.1667 49.146C25.0347 49.146 25.8234 49.0153 26.5327 48.754V45.758H24.4887C24.3301 45.758 24.2041 45.716 24.1107 45.632C24.0174 45.548 23.9707 45.4407 23.9707 45.31C23.9707 45.17 24.0174 45.0627 24.1107 44.988C24.2041 44.904 24.3301 44.862 24.4887 44.862H27.1067ZM30.2656 48.488C30.4989 48.488 30.6856 48.5813 30.8256 48.768C30.9749 48.9453 31.0496 49.216 31.0496 49.58C31.0496 50.3173 30.8116 50.938 30.3356 51.442C30.2423 51.5447 30.1349 51.596 30.0136 51.596C29.9203 51.596 29.8363 51.5587 29.7616 51.484C29.6869 51.4187 29.6496 51.3393 29.6496 51.246C29.6496 51.1433 29.6869 51.0547 29.7616 50.98C30.0043 50.728 30.1583 50.4153 30.2236 50.042C30.0183 50.0233 29.8456 49.9487 29.7056 49.818C29.5749 49.678 29.5096 49.5007 29.5096 49.286C29.5096 49.0527 29.5796 48.8613 29.7196 48.712C29.8689 48.5627 30.0509 48.488 30.2656 48.488ZM37.2842 50.07C37.1069 50.07 36.9669 50.0187 36.8642 49.916C36.7615 49.804 36.7102 49.6593 36.7102 49.482V40.69C36.7102 40.522 36.7615 40.3867 36.8642 40.284C36.9762 40.1813 37.1209 40.13 37.2982 40.13H40.6162C41.6522 40.13 42.4549 40.382 43.0242 40.886C43.6029 41.39 43.8922 42.104 43.8922 43.028C43.8922 43.952 43.6029 44.6707 43.0242 45.184C42.4455 45.6973 41.6429 45.954 40.6162 45.954H37.8582V49.482C37.8582 49.6593 37.8069 49.804 37.7042 49.916C37.6015 50.0187 37.4615 50.07 37.2842 50.07ZM40.5042 45.002C42.0069 45.002 42.7582 44.344 42.7582 43.028C42.7582 41.7307 42.0069 41.082 40.5042 41.082H37.8582V45.002H40.5042ZM53.1116 40.06C53.2796 40.06 53.4103 40.116 53.5036 40.228C53.597 40.3307 53.6436 40.4707 53.6436 40.648V49.482C53.6436 49.6593 53.5923 49.804 53.4896 49.916C53.3963 50.0187 53.261 50.07 53.0836 50.07C52.9063 50.07 52.7523 49.9907 52.6216 49.832L46.8116 42.062V49.482C46.8116 49.6593 46.7603 49.804 46.6576 49.916C46.5643 50.0187 46.4336 50.07 46.2656 50.07C46.0976 50.07 45.967 50.0187 45.8736 49.916C45.7803 49.804 45.7336 49.6593 45.7336 49.482V40.648C45.7336 40.4707 45.7803 40.3307 45.8736 40.228C45.9763 40.116 46.1163 40.06 46.2936 40.06C46.4803 40.06 46.639 40.1393 46.7696 40.298L52.5656 48.068V40.648C52.5656 40.4707 52.6123 40.3307 52.7056 40.228C52.8083 40.116 52.9436 40.06 53.1116 40.06ZM63.4192 44.862C63.5592 44.862 63.6712 44.904 63.7552 44.988C63.8486 45.072 63.8952 45.1887 63.8952 45.338V48.824C63.8952 49.048 63.8579 49.216 63.7832 49.328C63.7179 49.44 63.5919 49.5287 63.4052 49.594C63.0319 49.7527 62.5792 49.8787 62.0472 49.972C61.5152 50.0653 60.9832 50.112 60.4512 50.112C59.4712 50.112 58.6266 49.9113 57.9172 49.51C57.2079 49.1087 56.6619 48.53 56.2792 47.774C55.9059 47.018 55.7192 46.1127 55.7192 45.058C55.7192 44.022 55.9059 43.126 56.2792 42.37C56.6526 41.614 57.1892 41.0353 57.8892 40.634C58.5892 40.2233 59.4106 40.018 60.3532 40.018C61.0066 40.018 61.6132 40.1207 62.1732 40.326C62.7332 40.522 63.2046 40.8067 63.5872 41.18C63.7459 41.3387 63.8252 41.502 63.8252 41.67C63.8252 41.8007 63.7879 41.9173 63.7132 42.02C63.6386 42.1133 63.5452 42.16 63.4332 42.16C63.3212 42.16 63.1906 42.104 63.0412 41.992C62.5559 41.6187 62.1172 41.362 61.7252 41.222C61.3332 41.0727 60.8806 40.998 60.3672 40.998C59.2566 40.998 58.4026 41.348 57.8052 42.048C57.2172 42.748 56.9232 43.7513 56.9232 45.058C56.9232 46.3927 57.2219 47.41 57.8192 48.11C58.4259 48.8007 59.3126 49.146 60.4792 49.146C61.3472 49.146 62.1359 49.0153 62.8452 48.754V45.758H60.8012C60.6426 45.758 60.5166 45.716 60.4232 45.632C60.3299 45.548 60.2832 45.4407 60.2832 45.31C60.2832 45.17 60.3299 45.0627 60.4232 44.988C60.5166 44.904 60.6426 44.862 60.8012 44.862H63.4192ZM66.3844 52.296C66.2631 52.5107 66.0951 52.618 65.8804 52.618C65.7684 52.618 65.6704 52.5807 65.5864 52.506C65.5117 52.4407 65.4744 52.352 65.4744 52.24C65.4744 52.2027 65.4931 52.128 65.5304 52.016C66.3051 50.1587 66.6924 48.2593 66.6924 46.318C66.6924 44.3767 66.3051 42.4773 65.5304 40.62C65.4931 40.508 65.4744 40.4333 65.4744 40.396C65.4744 40.284 65.5117 40.1953 65.5864 40.13C65.6704 40.0553 65.7684 40.018 65.8804 40.018C66.0951 40.018 66.2631 40.1253 66.3844 40.34C67.3644 42.244 67.8544 44.2367 67.8544 46.318C67.8544 48.3993 67.3644 50.392 66.3844 52.296Z" fill="#999999"/>
<path d="M40.4173 2.5C44.6539 2.5 47.5 5.47264 47.5 9.8959V20.1041C47.5 24.5274 44.6539 27.5 40.416 27.5H29.5827C25.3461 27.5 22.5 24.5274 22.5 20.1041V9.8959C22.5 5.47264 25.3461 2.5 29.5827 2.5H40.4173ZM41.7957 15.6876C40.4558 14.8517 39.4213 16.0255 39.1423 16.4009C38.8733 16.7634 38.642 17.1633 38.3981 17.5632C37.8023 18.5501 37.1198 19.6878 35.9383 20.3496C34.2212 21.3003 32.9178 20.4244 31.9801 19.7872C31.6281 19.5498 31.2862 19.3253 30.9456 19.1757C30.1059 18.8132 29.3505 19.226 28.2293 20.6502C27.641 21.3945 27.0578 22.1324 26.467 22.8676C26.1138 23.3075 26.198 23.9861 26.6744 24.2802C27.4348 24.7485 28.3625 25 29.4108 25H39.9455C40.54 25 41.1358 24.9187 41.704 24.733C42.9836 24.315 43.9992 23.3578 44.5297 22.0937C44.9771 21.0307 45.1946 19.7407 44.776 18.6674C44.6365 18.3114 44.4278 17.9799 44.135 17.6883C43.367 16.926 42.6492 16.2139 41.7957 15.6876ZM30.6236 7.5C28.9003 7.5 27.5 8.90216 27.5 10.625C27.5 12.3478 28.9003 13.75 30.6236 13.75C32.3456 13.75 33.7471 12.3478 33.7471 10.625C33.7471 8.90216 32.3456 7.5 30.6236 7.5Z" fill="#B5B5B5"/>
</svg>
