<svg width="25" height="31" viewBox="0 0 25 31" fill="none" xmlns="http://www.w3.org/2000/svg">
<path d="M13.3324 1.06182L23.012 4.30946C24.0955 4.67127 24.8281 5.66658 24.834 6.78202L24.8957 16.4663C24.9148 19.4022 23.8445 22.2494 21.8845 24.4803C20.983 25.5042 19.8276 26.3837 18.3521 27.1702L13.1489 29.9517C12.986 30.0375 12.8068 30.0818 12.6263 30.0833C12.4457 30.0847 12.2651 30.0418 12.1036 29.9574L6.85198 27.2403C5.36033 26.4666 4.19461 25.6 3.28435 24.5904C1.29206 22.3824 0.185068 19.5481 0.165982 16.6079L0.104283 6.93074C0.0984464 5.81388 0.817845 4.81141 1.89547 4.43531L11.5383 1.07183C12.1109 0.868767 12.7496 0.864477 13.3324 1.06182ZM17.9613 11.4438C17.5281 11.0277 16.8308 11.0306 16.4035 11.4524L11.4911 16.2946L9.4797 14.3611C9.04659 13.945 8.35068 13.9493 7.92198 14.3711C7.49474 14.793 7.49915 15.4709 7.93225 15.887L10.7262 18.5755C10.9435 18.7843 11.2253 18.8872 11.5072 18.8844C11.7891 18.8829 12.0695 18.7771 12.2839 18.5655L17.9701 12.9597C18.3973 12.5378 18.3929 11.86 17.9613 11.4438Z" fill="white"/>
</svg>
