<svg width="11" height="13" viewBox="0 0 11 13" fill="none" xmlns="http://www.w3.org/2000/svg">
<path d="M5.85672 0.312228L10.0051 1.70407C10.4695 1.85913 10.7834 2.28569 10.786 2.76374L10.8124 6.91415C10.8206 8.17239 10.3619 9.39263 9.52188 10.3487C9.13554 10.7875 8.64036 11.1645 8.008 11.5015L5.77807 12.6936C5.70823 12.7304 5.63147 12.7494 5.55407 12.75C5.47668 12.7506 5.39929 12.7322 5.33007 12.696L3.07939 11.5316C2.44011 11.2 1.94051 10.8286 1.5504 10.3959C0.696562 9.44962 0.222137 8.2349 0.213957 6.97482L0.187515 2.82748C0.185014 2.34882 0.493327 1.91919 0.955168 1.75801L5.08783 0.316518C5.33322 0.229489 5.60693 0.22765 5.85672 0.312228ZM7.8405 4.76166C7.65488 4.58331 7.35601 4.58454 7.17291 4.76534L5.06757 6.84054L4.20555 6.01193C4.01993 5.83358 3.72168 5.83542 3.53795 6.01622C3.35485 6.19702 3.35674 6.48752 3.54236 6.66587L4.73975 7.81808C4.83287 7.90756 4.95368 7.95169 5.07449 7.95049C5.1953 7.94985 5.31548 7.9045 5.40734 7.81379L7.84428 5.41131C8.02738 5.23051 8.02549 4.94001 7.8405 4.76166Z" fill="#296870"/>
</svg>
