<svg width="15" height="15" viewBox="0 0 15 15" fill="none" xmlns="http://www.w3.org/2000/svg">
<path d="M7.85672 1.31223L12.0051 2.70407C12.4695 2.85913 12.7834 3.28569 12.786 3.76374L12.8124 7.91415C12.8206 9.17239 12.3619 10.3926 11.5219 11.3487C11.1355 11.7875 10.6404 12.1645 10.008 12.5015L7.77807 13.6936C7.70823 13.7304 7.63147 13.7494 7.55407 13.75C7.47668 13.7506 7.39929 13.7322 7.33007 13.696L5.07939 12.5316C4.44011 12.2 3.94051 11.8286 3.5504 11.3959C2.69656 10.4496 2.22214 9.2349 2.21396 7.97482L2.18752 3.82748C2.18501 3.34882 2.49333 2.91919 2.95517 2.75801L7.08783 1.31652C7.33322 1.22949 7.60693 1.22765 7.85672 1.31223ZM9.8405 5.76166C9.65488 5.58331 9.35601 5.58454 9.17291 5.76534L7.06757 7.84054L6.20555 7.01193C6.01993 6.83358 5.72168 6.83542 5.53795 7.01622C5.35485 7.19702 5.35674 7.48752 5.54236 7.66587L6.73975 8.81808C6.83287 8.90756 6.95368 8.95169 7.07449 8.95049C7.1953 8.94985 7.31548 8.9045 7.40734 8.81379L9.84428 6.41131C10.0274 6.23051 10.0255 5.94001 9.8405 5.76166Z" fill="#296870"/>
</svg>
